<svg width="596" height="1137" viewBox="0 0 596 1137" fill="none" xmlns="http://www.w3.org/2000/svg">
<path fill-rule="evenodd" clip-rule="evenodd" d="M263.729 15.5741C255.935 23.2909 251.63 32.2179 250.088 37.0276C248.865 40.8424 248.476 47.4756 248.503 54.2825C248.529 61.0662 248.965 67.945 249.36 72.2039C249.383 72.4493 249.223 72.6746 248.984 72.7349C248.745 72.7951 248.498 72.6722 248.402 72.4453C248.128 71.8003 247.585 70.8523 246.863 70.1238C246.135 69.389 245.314 68.9601 244.451 69.1169C243.467 69.2959 242.521 69.6942 241.74 70.4109C240.962 71.1254 240.318 72.1832 239.979 73.732C239.774 74.6663 239.68 75.7802 239.736 77.1037C239.86 80.0128 240.294 83.5173 240.961 86.7425C241.631 89.9817 242.524 92.8834 243.543 94.6221C244.089 95.5523 244.637 96.7148 245.192 97.9061C245.239 98.0064 245.286 98.1069 245.332 98.2075C245.846 99.3121 246.368 100.434 246.912 101.452C247.508 102.566 248.111 103.517 248.729 104.162C249.351 104.812 249.907 105.069 250.425 105.004C251.844 104.827 252.609 104.393 253.06 103.954C253.483 103.544 253.672 103.096 253.852 102.672C253.869 102.632 253.885 102.592 253.902 102.553C253.931 102.485 253.969 102.408 254.018 102.338C254.049 102.294 254.168 102.127 254.395 102.088C254.699 102.034 254.882 102.24 254.94 102.325C255.001 102.414 255.031 102.509 255.048 102.566C255.113 102.796 255.151 103.199 255.188 103.646C255.2 103.781 255.211 103.926 255.223 104.079C255.297 104.999 255.395 106.227 255.606 107.546C255.701 108.143 255.797 108.912 255.906 109.779C255.941 110.062 255.978 110.355 256.016 110.656C256.173 111.888 256.36 113.268 256.609 114.662C257.11 117.474 257.847 120.252 259.024 121.967C259.08 122.049 259.111 122.146 259.112 122.245C259.168 128.34 259.238 138.776 259.219 145.751C259.21 149.206 259.179 151.844 259.11 152.667C259.035 153.572 258.509 154.491 257.745 155.39C256.972 156.299 255.906 157.246 254.651 158.209C252.139 160.137 248.802 162.181 245.363 164.182C238.452 168.204 226.544 173.591 212.4 178.473C205.818 180.744 201.17 181.453 196.663 182.141C196.301 182.196 195.94 182.251 195.579 182.307C190.739 183.054 185.874 183.921 178.675 186.838C177.872 187.164 177.093 187.477 176.337 187.781L175.812 187.993C169.523 190.525 164.829 192.454 160.454 195.566C156.087 198.671 152.013 202.974 147.025 210.282C136.369 225.894 135.362 247.003 135.362 258C135.362 266.813 134.945 275.191 134.736 278.284C134.73 278.364 134.706 278.442 134.664 278.511C132.834 281.504 129.964 286.408 127.303 291.386C124.635 296.376 122.199 301.398 121.215 304.645C120.361 307.466 118.995 311.338 117.487 315.616C116.783 317.612 116.048 319.697 115.319 321.804C113.021 328.447 110.782 335.324 109.727 340.475C108.069 348.57 106.314 351.655 103.073 357.356C102.122 359.027 101.044 360.923 99.8025 363.236C99.3492 364.081 98.8892 364.93 98.4227 365.791C93.2335 375.367 87.2419 386.423 80.7186 409.884C77.162 422.675 74.6652 435.22 72.5404 446.251C72.3555 447.211 72.1734 448.159 71.9936 449.096C70.11 458.906 68.4818 467.387 66.5897 473.522C64.5231 480.223 60.9881 490.264 57.8309 498.814C56.252 503.09 54.7662 506.996 53.6041 509.928C53.0232 511.394 52.5221 512.62 52.13 513.528C51.9341 513.981 51.7639 514.359 51.6235 514.65C51.4898 514.926 51.3656 515.162 51.2619 515.3C51.0754 515.549 50.8019 515.781 50.4964 515.996C50.1856 516.215 49.8147 516.433 49.41 516.647C48.6005 517.075 47.625 517.5 46.6563 517.886C44.7181 518.659 42.7663 519.288 42.1306 519.479C41.1621 519.769 38.3579 520.915 37.0553 521.461L37.0542 521.462C32.59 523.322 28.2478 525.928 26.5275 527.157C25.7762 527.693 25.095 528.377 24.3742 529.1C24.2958 529.179 24.2169 529.258 24.1373 529.338C23.3421 530.133 22.4906 530.956 21.4941 531.554C20.8257 531.955 19.9196 532.436 18.9631 532.943C18.5597 533.158 18.1472 533.377 17.7399 533.596C16.3443 534.349 15.0068 535.111 14.1708 535.768C12.4384 537.129 10.2255 539.224 9.13689 540.675C8.64897 541.326 8.47359 541.81 8.29806 542.295L8.26929 542.374C8.07212 542.916 7.85394 543.465 7.21544 544.104C6.67065 544.648 5.90932 545.243 5.12853 545.852L4.93548 546.003C4.07369 546.677 3.19079 547.378 2.46544 548.104C1.84508 548.724 1.37215 550.061 1.53051 551.443C1.68411 552.784 2.42556 554.109 4.16739 554.784C5.99454 555.491 8.208 555.559 10.3494 555.165C12.4898 554.77 14.5086 553.921 15.9369 552.85C17.3924 551.758 18.2699 550.761 18.9918 549.885C19.0804 549.777 19.1676 549.671 19.254 549.565C19.8606 548.821 20.4283 548.125 21.2023 547.589C22.0561 546.998 23.4366 546.294 24.8159 545.739C26.1783 545.191 27.6319 544.75 28.6119 544.75C28.7818 544.75 28.9401 544.836 29.0321 544.979C29.1242 545.122 29.1375 545.302 29.0673 545.456C27.8592 548.123 25.1 554.415 23.7075 558.294C22.1675 562.584 19.7433 572.358 18.4239 577.678C18.2534 578.366 18.1013 578.979 17.972 579.496C16.8473 583.995 14.8502 592.358 13.8531 597.594C12.8497 602.861 11.6091 609.818 11.4863 612.275C11.4699 612.602 11.4317 613.01 11.388 613.476C11.254 614.904 11.0691 616.875 11.3108 618.716C11.4694 619.925 11.8068 621.003 12.4181 621.786C13.0122 622.547 13.8959 623.069 15.2577 623.125C17.9778 623.239 19.7749 621.441 20.9579 619.348C22.0486 617.418 22.5465 615.354 22.7166 614.648C22.7305 614.591 22.7422 614.542 22.7518 614.504C22.8283 614.198 23.0132 613.172 23.2506 611.839L23.3156 611.474C23.5362 610.235 23.7907 608.805 24.0323 607.532C24.3088 606.074 24.5769 604.774 24.7626 604.217C24.9082 603.78 25.2635 602.587 25.7506 600.953C26.4826 598.495 27.5124 595.039 28.5754 591.647C29.2328 589.55 29.9009 587.484 30.5144 585.711C31.6393 582.462 32.4222 580.238 32.9869 578.717C33.5472 577.207 33.9041 576.356 34.1778 575.877C34.3581 575.561 34.6338 575.331 34.9944 575.302C35.3268 575.276 35.6034 575.434 35.7849 575.592C35.9714 575.756 36.1207 575.972 36.2046 576.194C36.2782 576.389 36.3514 576.73 36.1529 577.027C36.0528 577.178 35.6606 577.895 35.2103 578.92C34.7641 579.935 34.2764 581.218 33.9733 582.491C33.756 583.404 33.1651 585.586 32.4507 588.225C32.1306 589.407 31.7857 590.681 31.4385 591.973C30.3119 596.167 29.1608 600.555 28.7272 602.723C28.294 604.889 28.1084 606.466 27.937 608.023L27.9006 608.355C27.7419 609.806 27.5806 611.28 27.2288 613.214C27.0217 614.354 26.7245 615.694 26.4065 617.129C26.1502 618.285 25.8804 619.502 25.6332 620.724C25.0721 623.499 24.6119 626.365 24.6119 628.875C24.6119 631.419 24.8942 633.45 25.5619 634.829C25.8917 635.51 26.3072 636.015 26.8141 636.351C27.3185 636.686 27.9457 636.875 28.7369 636.875C31.9664 636.875 33.4598 634.696 33.9278 633.877C34.403 633.045 35.8851 629.592 36.4993 626.889C36.8009 625.562 37.2216 623.287 37.6341 621.057L37.6671 620.878C38.0872 618.606 38.497 616.398 38.7518 615.379C38.8603 614.945 39.1396 613.745 39.525 612.09C40.0257 609.938 40.7056 607.018 41.4224 604.009C42.685 598.709 44.0666 593.117 44.7641 591.087C45.1067 590.091 45.4339 589.101 45.7425 588.166L45.8064 587.972C46.0909 587.109 46.3594 586.295 46.6078 585.572C46.8741 584.796 47.1206 584.116 47.342 583.586C47.4527 583.322 47.5603 583.087 47.6641 582.894C47.7634 582.709 47.8771 582.528 48.0084 582.396C48.5132 581.892 49.2305 581.922 49.7105 582.162C49.9575 582.286 50.1915 582.486 50.3242 582.762C50.4648 583.054 50.4727 583.396 50.3091 583.724L50.3084 583.725C50.3073 583.727 50.305 583.732 50.3015 583.741C50.2964 583.753 50.29 583.768 50.2821 583.788C50.2663 583.829 50.2466 583.882 50.2229 583.948C50.1757 584.08 50.1157 584.257 50.0442 584.474C49.9014 584.909 49.7155 585.5 49.4982 586.209C49.0638 587.627 48.5061 589.514 47.921 591.574C46.7493 595.698 45.473 600.494 44.8522 603.598C44.2869 606.424 43.953 608.71 43.6502 610.783C43.6198 610.991 43.5897 611.197 43.5597 611.401C43.2314 613.636 42.9158 615.659 42.3462 617.875C42.2722 618.162 42.1865 618.485 42.0928 618.839C41.4659 621.203 40.4837 624.907 40.2829 628.28C40.1674 630.22 40.3165 631.985 40.8956 633.298C41.4581 634.574 42.4256 635.433 44.0468 635.629C45.6408 635.821 47.006 635.094 48.2054 633.732C49.4122 632.361 50.4022 630.396 51.2065 628.261C52.4787 624.885 53.2434 621.216 53.6991 619.029C53.8202 618.448 53.9195 617.972 54.0007 617.633C54.3646 616.117 55.162 613.419 55.9423 610.778L56.0387 610.452C56.8549 607.689 57.6279 605.059 57.8726 603.897C58.3721 601.525 60.1278 593.995 61.1397 591.086C61.31 590.596 61.4961 590.021 61.6936 589.411C62.0589 588.282 62.4635 587.032 62.8811 585.973C63.2043 585.153 63.5536 584.397 63.9264 583.862C64.1121 583.596 64.3251 583.353 64.571 583.19C64.8276 583.021 65.147 582.923 65.4935 583.018C65.9335 583.138 66.1126 583.526 66.18 583.839C66.249 584.158 66.2408 584.547 66.1969 584.951C66.108 585.767 65.8515 586.813 65.5454 587.873C65.2374 588.939 64.8712 590.046 64.5525 590.99C64.4866 591.185 64.4231 591.372 64.3627 591.551C64.1272 592.245 63.9387 592.801 63.8427 593.137C63.6011 593.983 63.2936 595.64 62.9787 597.356L62.9432 597.549C62.6443 599.179 62.3418 600.829 62.095 601.754C62.0151 602.053 61.8932 602.491 61.7427 603.031C61.3706 604.365 60.8242 606.324 60.3083 608.372C59.7019 610.779 59.1511 613.258 58.9844 614.925C58.7963 616.806 58.7508 618.478 59.2207 619.731C59.4499 620.342 59.7987 620.843 60.3131 621.223C60.8306 621.605 61.5469 621.886 62.5453 622.003C63.3718 622.101 64.1844 621.669 64.9917 620.77C65.7947 619.875 66.5157 618.597 67.1408 617.216C67.7629 615.841 68.276 614.395 68.6741 613.185C68.8432 612.672 68.9947 612.19 69.1252 611.774C69.2949 611.234 69.4291 610.808 69.5202 610.57C69.8263 609.775 71.071 606.011 72.2921 602.207C73.5163 598.393 74.6923 594.614 74.873 593.77C75.0698 592.852 75.8975 590.439 76.8312 587.949C77.7689 585.449 78.8393 582.802 79.5397 581.401C80.1986 580.083 81.1817 577.058 82.1479 573.494C83.1182 569.916 84.0574 565.848 84.619 562.541C84.9022 560.874 85.2636 559.153 85.6306 557.424L85.6947 557.122C86.0414 555.488 86.3895 553.849 86.6823 552.224C87.3051 548.768 87.6677 545.426 87.2419 542.446C87.1998 542.151 87.1585 541.864 87.1182 541.584C86.324 536.067 85.9334 533.353 87.7754 528.933C88.4727 527.259 89.212 525.357 89.9564 523.443C91.1918 520.265 92.4413 517.052 93.5366 514.783C93.615 514.62 93.7023 514.438 93.7993 514.235C95.8799 509.888 102.41 496.242 120.589 472.322C139.551 447.372 151.513 419.316 154.746 402.655C157.345 389.259 159.495 377.079 160.244 372.666C160.254 372.606 160.275 372.549 160.306 372.496C171.615 353.311 180.232 337.246 185.276 319.364C185.336 319.152 185.527 319.004 185.747 319C185.968 318.996 186.165 319.136 186.233 319.346C187.549 323.399 189.708 329.013 191.919 334.763C192.325 335.817 192.732 336.876 193.136 337.93C195.736 344.717 198.213 351.343 199.222 355.379C200.221 359.376 200.84 361.477 201.455 363.105C201.916 364.327 202.374 365.283 202.999 366.588C203.208 367.024 203.436 367.499 203.689 368.037L203.877 368.435C205.809 372.539 207.741 376.639 208.235 381.701C208.338 382.758 208.516 384.099 208.737 385.681C208.794 386.09 208.853 386.514 208.915 386.953C209.758 392.956 210.987 401.709 210.987 410.875C210.987 417.05 209.845 422.788 208.734 428.378L208.696 428.566C207.57 434.23 206.488 439.74 206.612 445.489C206.692 449.229 206.799 452.283 206.906 454.854C206.979 456.621 207.054 458.164 207.12 459.547C207.257 462.392 207.362 464.563 207.362 466.625C207.362 467.828 207.03 469.264 206.525 470.966C206.227 471.972 205.859 473.099 205.452 474.347C205.17 475.212 204.868 476.136 204.557 477.119C203.031 481.946 201.228 488.354 200.108 496.94C199.247 503.539 198.404 508.404 197.65 512.488C197.472 513.449 197.3 514.367 197.133 515.252C196.592 518.131 196.114 520.674 195.727 523.322C195.414 525.46 195.162 527.664 194.986 530.16C194.985 530.175 194.983 530.19 194.98 530.205C192.109 547.959 186.324 588.848 186.125 610.505C185.947 629.779 187.031 651.74 187.764 666.575C188.062 672.614 188.302 677.473 188.375 680.488C188.624 690.837 189.996 705.17 193.483 718.12C193.814 719.35 194.171 720.598 194.547 721.857C195.442 724.857 196.44 727.92 197.44 730.967L197.678 731.693C198.597 734.494 199.511 737.277 200.335 739.973C202.123 745.819 203.51 751.307 203.625 755.737C203.743 760.306 203.054 763.222 202.274 766.519C202.22 766.747 202.166 766.976 202.112 767.208C201.273 770.78 200.374 774.992 200.25 782.383C200 797.238 200.874 812.472 201.124 816.469C201.142 816.765 201.113 817.218 201.054 817.781C200.994 818.354 200.899 819.074 200.776 819.921C200.528 821.616 200.164 823.839 199.725 826.454C199.562 827.426 199.389 828.452 199.208 829.527C198.413 834.237 197.463 839.868 196.541 845.857C194.274 860.585 192.191 877.404 192.998 887.962C194.394 906.215 199.486 938.241 202.714 958.548C203.24 961.854 203.716 964.848 204.119 967.423C204.542 970.125 205.033 973.141 205.558 976.371C206.818 984.11 208.277 993.078 209.48 1001.9C211.182 1014.4 212.378 1026.67 211.748 1034.79C211.123 1042.86 210.685 1047.14 210.403 1049.86L210.382 1050.07C210.116 1052.65 210 1053.76 210 1055.5C210 1057.14 210.372 1059.2 210.782 1061.46L210.867 1061.93C211.303 1064.34 211.75 1066.95 211.75 1069.38C211.75 1071.17 211.839 1072.77 211.917 1074.17C211.941 1074.61 211.965 1075.03 211.984 1075.43C212.023 1076.25 212.043 1076.99 212.013 1077.61C211.983 1078.22 211.901 1078.77 211.705 1079.21C211.437 1079.8 211.018 1080.39 210.572 1081.02C210.457 1081.18 210.34 1081.35 210.224 1081.52C209.64 1082.36 209.006 1083.36 208.463 1084.69C208.031 1085.74 207.852 1086.71 207.674 1087.68C207.629 1087.91 207.585 1088.15 207.537 1088.39C207.297 1089.59 206.964 1090.79 206.011 1091.94C205.513 1092.55 204.649 1093.22 203.635 1093.98C203.4 1094.16 203.154 1094.34 202.899 1094.53C199.947 1096.72 195.814 1099.78 193.054 1104.38C191.031 1107.75 190.082 1111.12 189.73 1113.94C189.377 1116.76 189.629 1119 189.977 1120.1C190.155 1120.66 190.325 1121.01 190.47 1121.23C190.611 1121.45 190.736 1121.57 190.851 1121.66C190.948 1121.74 191.158 1121.89 191.295 1122.11C191.448 1122.36 191.5 1122.64 191.5 1123C191.5 1123.51 191.743 1124.39 192.231 1125.13C192.718 1125.88 193.366 1126.38 194.125 1126.38C195.1 1126.38 195.83 1126.28 196.316 1126.14C196.559 1126.07 196.719 1126 196.813 1125.93C196.866 1125.9 196.887 1125.87 196.893 1125.87C196.957 1125.64 197.175 1125.48 197.413 1125.5C197.656 1125.52 197.851 1125.71 197.873 1125.95C197.953 1126.83 198.128 1127.62 198.422 1128.19C198.71 1128.75 199.083 1129.06 199.571 1129.13C200.841 1129.31 201.982 1129.27 202.843 1129.02C203.7 1128.77 204.213 1128.32 204.397 1127.73C204.465 1127.51 204.677 1127.36 204.908 1127.38C205.14 1127.39 205.33 1127.56 205.368 1127.79C205.511 1128.66 205.829 1129.42 206.382 1129.96C206.925 1130.5 207.745 1130.88 209 1130.88C210.218 1130.88 211.045 1130.48 211.616 1129.92C212.198 1129.35 212.551 1128.58 212.739 1127.76C212.798 1127.51 213.046 1127.34 213.305 1127.38C213.565 1127.42 213.748 1127.66 213.724 1127.92C213.631 1128.95 213.804 1130.49 214.599 1131.75C215.372 1132.98 216.765 1134 219.25 1134C220.827 1134 221.903 1133.64 222.649 1133.13C223.396 1132.62 223.854 1131.93 224.147 1131.22C224.442 1130.5 224.564 1129.76 224.643 1129.16C224.654 1129.07 224.665 1128.99 224.675 1128.9C224.7 1128.71 224.722 1128.53 224.747 1128.38C224.765 1128.28 224.79 1128.17 224.828 1128.06C224.856 1127.99 224.937 1127.78 225.151 1127.68C225.503 1127.5 225.999 1127.44 226.406 1127.44C226.618 1127.44 226.834 1127.45 227.025 1127.5C227.191 1127.53 227.432 1127.6 227.603 1127.77C227.725 1127.89 227.761 1128.04 227.774 1128.1C227.791 1128.18 227.799 1128.26 227.803 1128.33C227.81 1128.47 227.807 1128.65 227.802 1128.84C227.792 1129.22 227.774 1129.7 227.796 1130.21C227.842 1131.27 228.058 1132.35 228.728 1133.02C229.5 1133.79 230.439 1134.5 231.794 1134.98C233.154 1135.47 234.96 1135.75 237.475 1135.63C243.69 1135.32 247.404 1131.69 249.632 1127.92C251.54 1124.69 252.326 1121.43 252.644 1120.11C252.699 1119.88 252.74 1119.71 252.771 1119.61C252.823 1119.43 252.91 1119.21 253.016 1118.93C253.729 1117.08 255.282 1113.05 252.565 1108.25C252.132 1107.48 251.736 1106.8 251.378 1106.19C250.778 1105.16 250.288 1104.32 249.927 1103.59C249.634 1103 249.412 1102.46 249.273 1101.92C248.914 1100.52 249.152 1099.24 249.91 1097.32C250.323 1096.27 250.814 1095.22 251.312 1094.18L251.441 1093.91C251.898 1092.94 252.357 1091.98 252.773 1090.99C253.683 1088.83 254.375 1086.59 254.375 1084.12C254.375 1081.62 254.04 1080.19 253.721 1079.02C253.689 1078.9 253.656 1078.79 253.624 1078.67C253.334 1077.63 253.066 1076.66 253.125 1075.23C253.154 1074.53 253.229 1073.38 253.323 1071.95C253.638 1067.13 254.163 1059.08 253.876 1053.9C253.785 1052.27 253.336 1050.23 252.702 1047.82C252.386 1046.62 252.026 1045.35 251.646 1043.99C251.266 1042.64 250.865 1041.21 250.47 1039.72C248.888 1033.77 247.374 1026.81 247.5 1019.49C247.751 1004.95 251.881 971.277 259.274 948.471C266.62 925.812 266.249 906.637 264.876 889.665C264.375 883.469 262.991 876.665 261.578 869.715C261.06 867.171 260.539 864.607 260.055 862.046C258.259 852.531 256.989 843.072 258.509 835.032C260.016 827.056 262.214 820.558 264.183 814.852L264.41 814.198C266.289 808.758 267.911 804.065 268.504 799.436C269.125 794.595 269.281 786.722 269.422 779.553L269.423 779.508C269.493 775.949 269.559 772.568 269.678 769.841C269.738 768.473 269.811 767.263 269.905 766.274C269.998 765.296 270.115 764.501 270.271 763.981C270.575 762.968 271.069 760.51 271.638 757.288C273.103 748.995 275.017 735.899 275.376 730.343C275.548 727.681 276.525 722.455 277.827 716.271C279.132 710.074 280.773 702.872 282.287 696.23L282.288 696.223L282.592 694.889C283.926 689.033 285.133 683.711 285.885 680.025C286.108 678.934 286.357 677.739 286.626 676.447C289.383 663.211 294.238 639.906 294.125 616.502V603.409C294.125 603.266 294.186 603.129 294.294 603.034C294.401 602.94 294.544 602.895 294.687 602.913C295.8 603.052 296.986 603.125 298.25 603.125C299.513 603.125 300.699 603.052 301.813 602.913C301.955 602.895 302.098 602.94 302.206 603.034C302.313 603.129 302.375 603.266 302.375 603.409V616.502C302.261 639.906 307.117 663.211 309.874 676.447C310.143 677.739 310.392 678.934 310.615 680.025C311.367 683.711 312.573 689.033 313.907 694.889L314.211 696.223L314.213 696.23C315.726 702.872 317.367 710.074 318.672 716.271C319.975 722.455 320.952 727.681 321.124 730.343C321.482 735.899 323.397 748.995 324.861 757.288C325.43 760.51 325.925 762.968 326.229 763.981C326.385 764.501 326.501 765.296 326.595 766.274C326.689 767.263 326.762 768.473 326.822 769.841C326.941 772.568 327.007 775.949 327.077 779.508L327.078 779.553C327.219 786.722 327.375 794.595 327.996 799.436C328.589 804.065 330.211 808.758 332.09 814.198L332.316 814.852C334.286 820.558 336.484 827.056 337.991 835.032C339.51 843.072 338.241 852.531 336.444 862.046C335.961 864.607 335.439 867.171 334.922 869.715C333.508 876.665 332.124 883.469 331.623 889.665C330.25 906.637 329.88 925.812 337.225 948.471C344.619 971.277 348.749 1004.95 349 1019.49C349.126 1026.81 347.612 1033.77 346.03 1039.72C345.634 1041.21 345.234 1042.64 344.854 1043.99L344.829 1044.08C344.458 1045.4 344.107 1046.65 343.798 1047.82C343.163 1050.23 342.715 1052.27 342.624 1053.9C342.336 1059.08 342.862 1067.13 343.177 1071.95C343.27 1073.38 343.345 1074.53 343.374 1075.23C343.434 1076.66 343.166 1077.63 342.875 1078.67C342.843 1078.79 342.811 1078.9 342.779 1079.02C342.459 1080.19 342.125 1081.62 342.125 1084.12C342.125 1086.59 342.816 1088.83 343.726 1090.99C344.143 1091.98 344.601 1092.94 345.059 1093.9L345.188 1094.18C345.685 1095.22 346.177 1096.27 346.59 1097.32C347.348 1099.24 347.586 1100.52 347.226 1101.92C347.088 1102.46 346.866 1103 346.573 1103.59C346.211 1104.32 345.722 1105.16 345.121 1106.19C344.764 1106.8 344.367 1107.48 343.935 1108.25C341.217 1113.05 342.771 1117.08 343.484 1118.93C343.589 1119.21 343.677 1119.43 343.729 1119.61C343.759 1119.71 343.801 1119.88 343.856 1120.11C344.174 1121.43 344.96 1124.69 346.868 1127.92C349.096 1131.69 352.809 1135.32 359.024 1135.63C361.539 1135.75 363.346 1135.47 364.706 1134.98C366.06 1134.5 367 1133.79 367.771 1133.02C368.442 1132.35 368.657 1131.27 368.703 1130.21C368.723 1129.76 368.711 1129.34 368.701 1128.99L368.697 1128.84C368.692 1128.65 368.689 1128.47 368.697 1128.33C368.701 1128.26 368.709 1128.18 368.726 1128.1C368.739 1128.04 368.775 1127.89 368.896 1127.77C369.068 1127.6 369.309 1127.53 369.475 1127.5C369.666 1127.45 369.882 1127.44 370.094 1127.44C370.5 1127.44 370.997 1127.5 371.348 1127.68C371.563 1127.78 371.644 1127.99 371.672 1128.06C371.71 1128.17 371.734 1128.28 371.752 1128.38C371.788 1128.59 371.819 1128.88 371.857 1129.16C371.936 1129.76 372.058 1130.5 372.353 1131.22C372.646 1131.93 373.104 1132.62 373.85 1133.13C374.596 1133.64 375.672 1134 377.25 1134C379.735 1134 381.128 1132.98 381.901 1131.75C382.696 1130.49 382.869 1128.95 382.775 1127.92C382.752 1127.66 382.935 1127.42 383.194 1127.38C383.454 1127.34 383.701 1127.51 383.76 1127.76C383.949 1128.58 384.302 1129.35 384.884 1129.92C385.455 1130.48 386.282 1130.88 387.5 1130.88C388.733 1130.88 389.551 1130.5 390.099 1129.96C390.657 1129.4 390.982 1128.64 391.132 1127.79C391.173 1127.56 391.363 1127.39 391.594 1127.38C391.824 1127.36 392.035 1127.51 392.103 1127.73C392.286 1128.32 392.8 1128.77 393.657 1129.02C394.518 1129.27 395.659 1129.31 396.929 1129.13C397.393 1129.06 397.766 1128.75 398.061 1128.18C398.359 1127.6 398.541 1126.81 398.627 1125.95C398.652 1125.71 398.847 1125.52 399.089 1125.5C399.327 1125.48 399.543 1125.64 399.606 1125.87C399.613 1125.87 399.633 1125.9 399.686 1125.93C399.781 1126 399.941 1126.07 400.184 1126.14C400.669 1126.28 401.4 1126.38 402.375 1126.38C403.134 1126.38 403.782 1125.88 404.269 1125.13C404.756 1124.39 405 1123.51 405 1123C405 1122.64 405.052 1122.36 405.205 1122.11C405.322 1121.93 405.492 1121.79 405.6 1121.7C405.618 1121.69 405.634 1121.67 405.648 1121.66C405.764 1121.57 405.889 1121.45 406.029 1121.23C406.174 1121.01 406.345 1120.66 406.523 1120.1C406.87 1119 407.123 1116.76 406.769 1113.94C406.417 1111.12 405.468 1107.75 403.446 1104.38C400.686 1099.78 396.552 1096.72 393.6 1094.53C393.346 1094.34 393.1 1094.16 392.865 1093.98C391.851 1093.22 390.987 1092.55 390.489 1091.94C389.535 1090.79 389.203 1089.59 388.963 1088.39C388.915 1088.15 388.87 1087.91 388.826 1087.68C388.647 1086.71 388.469 1085.74 388.037 1084.69C387.494 1083.36 386.86 1082.36 386.276 1081.52C386.159 1081.35 386.043 1081.18 385.928 1081.02C385.481 1080.39 385.062 1079.8 384.795 1079.21C384.598 1078.77 384.517 1078.22 384.487 1077.61C384.456 1076.99 384.477 1076.25 384.516 1075.43C384.535 1075.03 384.558 1074.61 384.583 1074.17C384.661 1072.77 384.75 1071.17 384.75 1069.38C384.75 1066.95 385.196 1064.34 385.633 1061.93L385.718 1061.46C386.128 1059.2 386.5 1057.14 386.5 1055.5C386.5 1053.76 386.384 1052.65 386.118 1050.07L386.096 1049.86C385.815 1047.14 385.377 1042.86 384.751 1034.79C384.122 1026.67 385.317 1014.4 387.02 1001.9C388.222 993.078 389.682 984.111 390.941 976.372C391.467 973.142 391.958 970.125 392.381 967.423C392.784 964.848 393.26 961.853 393.785 958.547C397.014 938.24 402.105 906.215 403.501 887.962C404.309 877.404 402.226 860.585 399.959 845.857C399.037 839.87 398.087 834.241 397.293 829.531C397.111 828.455 396.938 827.427 396.774 826.454C396.336 823.839 395.971 821.616 395.724 819.921C395.6 819.074 395.506 818.354 395.445 817.781C395.386 817.218 395.357 816.765 395.376 816.469C395.626 812.472 396.5 797.238 396.25 782.383C396.126 774.992 395.227 770.78 394.388 767.208C394.334 766.976 394.279 766.747 394.226 766.519C393.446 763.222 392.756 760.306 392.875 755.737C392.99 751.307 394.377 745.819 396.165 739.973C396.989 737.278 397.902 734.495 398.821 731.694L399.06 730.967C400.06 727.92 401.058 724.857 401.953 721.857C402.329 720.598 402.686 719.35 403.017 718.12C406.504 705.17 407.876 690.837 408.125 680.488C408.198 677.473 408.438 672.615 408.736 666.575C409.468 651.74 410.553 629.779 410.375 610.505C410.175 588.848 404.391 547.959 401.519 530.205C401.517 530.19 401.515 530.175 401.514 530.16C401.338 527.664 401.085 525.46 400.773 523.322C400.386 520.674 399.908 518.131 399.366 515.252C399.2 514.367 399.027 513.449 398.85 512.488C398.095 508.404 397.253 503.539 396.392 496.94C395.272 488.354 393.468 481.946 391.942 477.119C391.631 476.136 391.33 475.212 391.048 474.347C390.64 473.098 390.273 471.972 389.975 470.966C389.47 469.264 389.138 467.828 389.138 466.625C389.138 464.564 389.242 462.392 389.379 459.548C389.446 458.164 389.52 456.621 389.594 454.854C389.701 452.283 389.807 449.229 389.888 445.489C390.012 439.74 388.93 434.23 387.804 428.566L387.766 428.378C386.654 422.788 385.513 417.05 385.513 410.875C385.513 401.709 386.742 392.956 387.585 386.954C387.646 386.515 387.706 386.09 387.763 385.681C387.983 384.099 388.162 382.758 388.265 381.701C388.759 376.639 390.69 372.539 392.623 368.435L392.636 368.407L392.81 368.037C393.063 367.499 393.291 367.024 393.501 366.587C394.126 365.283 394.584 364.327 395.045 363.105C395.659 361.477 396.279 359.376 397.278 355.379C398.287 351.343 400.764 344.717 403.364 337.93C403.768 336.876 404.175 335.817 404.581 334.763C406.792 329.013 408.951 323.399 410.267 319.346C410.335 319.136 410.532 318.996 410.752 319C410.973 319.004 411.164 319.152 411.224 319.364C416.267 337.246 424.885 353.311 436.194 372.496C436.212 372.527 436.226 372.559 436.237 372.593C436.245 372.617 436.251 372.641 436.256 372.666C437.005 377.079 439.154 389.259 441.754 402.655C444.987 419.316 456.949 447.372 475.911 472.322C494.089 496.242 500.62 509.888 502.7 514.235C502.797 514.438 502.885 514.62 502.963 514.783C504.058 517.052 505.308 520.266 506.543 523.443C507.288 525.358 508.027 527.259 508.724 528.933C510.566 533.353 510.176 536.067 509.382 541.584C509.341 541.864 509.3 542.151 509.258 542.446C508.832 545.426 509.195 548.768 509.817 552.224C510.11 553.848 510.458 555.488 510.805 557.12L510.869 557.424C511.236 559.153 511.598 560.874 511.881 562.541C512.442 565.848 513.382 569.916 514.352 573.494C515.318 577.058 516.301 580.083 516.96 581.401C517.66 582.802 518.731 585.449 519.668 587.949C520.602 590.439 521.43 592.852 521.627 593.77C521.807 594.614 522.983 598.393 524.208 602.207C525.429 606.011 526.673 609.775 526.979 610.57C527.071 610.807 527.205 611.234 527.374 611.773C527.505 612.189 527.656 612.671 527.826 613.185C528.224 614.395 528.737 615.841 529.359 617.216C529.984 618.597 530.705 619.875 531.508 620.77C532.315 621.669 533.128 622.101 533.954 622.003C534.953 621.886 535.669 621.605 536.187 621.223C536.701 620.843 537.05 620.342 537.279 619.731C537.749 618.478 537.703 616.806 537.515 614.925C537.349 613.258 536.798 610.779 536.191 608.372C535.676 606.324 535.129 604.365 534.757 603.03C534.607 602.491 534.485 602.053 534.405 601.754C534.158 600.828 533.855 599.175 533.556 597.544L533.521 597.356C533.206 595.64 532.899 593.983 532.657 593.137C532.561 592.802 532.373 592.246 532.138 591.553C532.077 591.374 532.013 591.186 531.947 590.99C531.629 590.046 531.262 588.939 530.954 587.873C530.648 586.813 530.392 585.767 530.303 584.951C530.259 584.547 530.251 584.158 530.32 583.839C530.387 583.526 530.566 583.138 531.006 583.018C531.353 582.923 531.672 583.021 531.929 583.19C532.175 583.353 532.388 583.596 532.573 583.862C532.946 584.397 533.295 585.153 533.619 585.973C534.036 587.032 534.441 588.283 534.806 589.411C535.004 590.022 535.19 590.596 535.36 591.086C536.372 593.995 538.128 601.525 538.627 603.897C538.872 605.059 539.645 607.689 540.461 610.452L540.557 610.778C541.338 613.419 542.135 616.117 542.499 617.633C542.58 617.972 542.68 618.448 542.801 619.029C543.256 621.216 544.021 624.885 545.293 628.261C546.098 630.396 547.087 632.361 548.294 633.732C549.494 635.094 550.859 635.821 552.453 635.629C554.074 635.433 555.042 634.574 555.604 633.298C556.183 631.985 556.332 630.22 556.217 628.28C556.016 624.907 555.034 621.202 554.407 618.838C554.313 618.485 554.228 618.162 554.154 617.875C553.584 615.659 553.268 613.636 552.94 611.401C552.91 611.197 552.88 610.99 552.85 610.782C552.547 608.71 552.213 606.424 551.648 603.598C551.027 600.494 549.75 595.698 548.579 591.574C547.994 589.514 547.436 587.627 547.002 586.209C546.784 585.5 546.598 584.909 546.456 584.474C546.384 584.257 546.324 584.08 546.277 583.948C546.253 583.882 546.233 583.829 546.218 583.788C546.21 583.768 546.203 583.753 546.198 583.741C546.193 583.728 546.191 583.724 546.191 583.724C546.027 583.396 546.035 583.054 546.176 582.762C546.308 582.486 546.542 582.286 546.789 582.162C547.269 581.922 547.987 581.892 548.491 582.396C548.623 582.528 548.736 582.709 548.836 582.894C548.889 582.993 548.943 583.103 548.998 583.222C549.051 583.336 549.104 583.457 549.158 583.586C549.379 584.116 549.626 584.796 549.892 585.572C550.056 586.048 550.228 586.564 550.408 587.107C550.521 587.45 550.638 587.804 550.757 588.166C551.066 589.101 551.393 590.091 551.736 591.087C552.433 593.117 553.815 598.709 555.077 604.009C555.795 607.02 556.475 609.943 556.976 612.094C557.361 613.747 557.639 614.945 557.748 615.379C558.003 616.398 558.413 618.606 558.833 620.878C559.256 623.165 559.691 625.527 560 626.889C560.615 629.592 562.097 633.045 562.572 633.877C563.04 634.696 564.533 636.875 567.763 636.875C568.554 636.875 569.181 636.686 569.686 636.351C570.193 636.015 570.608 635.51 570.938 634.829C571.606 633.45 571.888 631.419 571.888 628.875C571.888 626.365 571.428 623.499 570.867 620.724C570.619 619.502 570.35 618.285 570.093 617.129C569.775 615.695 569.478 614.354 569.271 613.214C568.919 611.279 568.758 609.806 568.599 608.355L568.563 608.023C568.391 606.466 568.206 604.889 567.773 602.723C567.339 600.555 566.188 596.167 565.061 591.973C564.714 590.683 564.37 589.41 564.05 588.229C563.335 585.589 562.744 583.404 562.526 582.491C562.223 581.218 561.736 579.935 561.289 578.92C560.839 577.895 560.447 577.178 560.347 577.027C560.148 576.73 560.222 576.389 560.295 576.194C560.379 575.972 560.528 575.756 560.715 575.592C560.896 575.434 561.173 575.276 561.505 575.302C561.866 575.331 562.142 575.561 562.322 575.877C562.596 576.356 562.953 577.207 563.513 578.717C564.078 580.238 564.86 582.462 565.985 585.711C566.599 587.484 567.267 589.55 567.924 591.647C568.987 595.038 570.017 598.493 570.749 600.95C571.236 602.586 571.591 603.78 571.737 604.217C571.923 604.774 572.191 606.074 572.467 607.532C572.733 608.932 573.014 610.522 573.249 611.839C573.487 613.172 573.671 614.198 573.748 614.504C573.758 614.542 573.769 614.591 573.783 614.649C573.953 615.354 574.451 617.418 575.542 619.348C576.725 621.441 578.522 623.239 581.242 623.125C582.604 623.069 583.487 622.547 584.082 621.786C584.693 621.003 585.03 619.925 585.189 618.716C585.431 616.875 585.246 614.904 585.112 613.476C585.068 613.01 585.03 612.602 585.013 612.275C584.891 609.818 583.65 602.861 582.647 597.594C581.649 592.358 579.652 583.995 578.528 579.496C578.398 578.979 578.246 578.366 578.076 577.679C576.757 572.359 574.332 562.584 572.792 558.294C571.4 554.415 568.641 548.123 567.432 545.456C567.362 545.302 567.376 545.122 567.468 544.979C567.56 544.836 567.718 544.75 567.888 544.75C568.868 544.75 570.321 545.191 571.684 545.739C573.063 546.294 574.444 546.998 575.297 547.589C576.072 548.125 576.639 548.821 577.246 549.565C577.332 549.671 577.419 549.778 577.508 549.885C578.23 550.761 579.107 551.758 580.563 552.85C581.991 553.921 584.01 554.77 586.15 555.165C588.292 555.559 590.505 555.491 592.332 554.784C594.074 554.109 594.816 552.784 594.969 551.443C595.128 550.061 594.655 548.724 594.034 548.104C593.309 547.378 592.426 546.677 591.564 546.003L591.371 545.852C590.59 545.243 589.829 544.648 589.284 544.104C588.646 543.465 588.428 542.916 588.23 542.374L588.202 542.295C588.026 541.81 587.851 541.326 587.363 540.675C586.274 539.224 584.061 537.129 582.329 535.768C581.493 535.111 580.155 534.349 578.76 533.596C578.352 533.377 577.94 533.158 577.536 532.943C576.58 532.436 575.674 531.955 575.006 531.554C574.009 530.956 573.158 530.133 572.362 529.338C572.283 529.259 572.204 529.179 572.126 529.101C571.405 528.377 570.724 527.694 569.972 527.157C568.252 525.928 563.91 523.322 559.445 521.462L559.444 521.461C558.142 520.915 555.338 519.769 554.369 519.479C553.733 519.288 551.782 518.659 549.843 517.886C548.875 517.5 547.899 517.075 547.09 516.647C546.685 516.433 546.314 516.215 546.003 515.996C545.698 515.781 545.424 515.549 545.238 515.3C545.173 515.213 545.1 515.089 545.021 514.94C544.975 514.851 544.926 514.753 544.876 514.65C544.736 514.359 544.566 513.981 544.37 513.528C543.978 512.62 543.477 511.394 542.896 509.928C541.734 506.996 540.248 503.09 538.669 498.814C535.512 490.264 531.977 480.223 529.91 473.522C528.018 467.387 526.39 458.907 524.506 449.096C524.326 448.16 524.144 447.211 523.959 446.251C521.834 435.22 519.338 422.675 515.781 409.884C509.258 386.423 503.266 375.367 498.077 365.791C497.611 364.93 497.151 364.081 496.697 363.236C495.456 360.923 494.378 359.027 493.427 357.356C490.185 351.655 488.431 348.57 486.773 340.475C485.718 335.324 483.479 328.447 481.181 321.804C480.452 319.697 479.717 317.612 479.013 315.616C477.505 311.338 476.139 307.466 475.284 304.645C474.3 301.398 471.865 296.376 469.197 291.386C466.535 286.408 463.665 281.504 461.836 278.511C461.794 278.442 461.769 278.364 461.764 278.284C461.555 275.191 461.138 266.813 461.138 258C461.138 247.003 460.131 225.894 449.475 210.282C444.487 202.974 440.413 198.671 436.046 195.566C431.671 192.454 426.977 190.525 420.688 187.993C419.769 187.623 418.815 187.24 417.825 186.838C410.625 183.921 405.761 183.054 400.921 182.307C400.56 182.251 400.199 182.196 399.837 182.141C395.33 181.453 390.681 180.744 384.1 178.473C369.955 173.591 358.048 168.204 351.136 164.182C347.698 162.181 344.361 160.137 341.849 158.209C340.594 157.246 339.527 156.299 338.755 155.39C337.991 154.491 337.465 153.572 337.39 152.667C337.321 151.844 337.29 149.206 337.28 145.751C337.262 138.776 337.332 128.34 337.388 122.245C337.389 122.135 337.426 122.028 337.495 121.941C338.03 121.261 338.491 120.236 338.884 118.988C339.275 117.749 339.587 116.331 339.844 114.896C340.1 113.463 340.3 112.023 340.466 110.742C340.51 110.409 340.551 110.087 340.59 109.777C340.702 108.901 340.801 108.13 340.894 107.546C341.105 106.227 341.203 104.999 341.276 104.079C341.289 103.926 341.3 103.781 341.311 103.646C341.349 103.199 341.386 102.796 341.452 102.566C341.468 102.509 341.499 102.414 341.559 102.325C341.618 102.24 341.801 102.034 342.105 102.088C342.332 102.127 342.451 102.294 342.482 102.338C342.531 102.408 342.568 102.485 342.597 102.553C342.614 102.592 342.631 102.632 342.648 102.672C342.828 103.096 343.017 103.544 343.439 103.954C343.891 104.393 344.656 104.827 346.075 105.004C346.593 105.069 347.149 104.812 347.771 104.162C348.388 103.517 348.991 102.566 349.587 101.452C350.131 100.435 350.653 99.3124 351.167 98.2081L351.308 97.9061C351.862 96.7148 352.411 95.5523 352.956 94.6221C353.976 92.8834 354.869 89.9817 355.539 86.7425C356.206 83.5173 356.639 80.0128 356.763 77.1037C356.82 75.7802 356.725 74.6663 356.521 73.732C356.181 72.1832 355.538 71.1254 354.759 70.4109C353.978 69.6942 353.033 69.2959 352.048 69.1169C351.186 68.9601 350.365 69.389 349.637 70.1238C348.915 70.8523 348.372 71.8003 348.098 72.4453C348.002 72.6722 347.755 72.7951 347.516 72.7349C347.277 72.6746 347.117 72.4493 347.14 72.2039C347.535 67.945 347.971 61.0662 347.997 54.2825C348.023 47.4756 347.634 40.8424 346.412 37.0276C344.87 32.2182 340.558 23.2912 332.758 15.5742C324.967 7.86734 313.706 1.375 298.237 1.375C282.767 1.375 271.513 7.8673 263.729 15.5741ZM370.735 1128.41C370.735 1128.41 370.735 1128.41 370.736 1128.42C370.729 1128.4 370.73 1128.4 370.735 1128.41Z" fill="#E0E0E0"/>
<path d="M250.375 1103.37C250.944 1104.51 251.825 1105.92 253 1108C256.25 1113.75 253.625 1118.5 253.25 1119.75C252.875 1121 250.375 1135.5 237.5 1136.12C232.375 1136.38 230 1135 228.375 1133.38C226.75 1131.75 227.5 1128.38 227.25 1128.12C227 1127.88 225.875 1127.88 225.375 1128.12C224.875 1128.38 225.875 1134.5 219.25 1134.5C213.95 1134.5 213.026 1130.08 213.227 1127.88C212.823 1129.62 211.676 1131.38 209 1131.38C206.274 1131.38 205.183 1129.73 204.875 1127.88C204.375 1129.5 202.125 1130 199.5 1129.62C198.106 1129.43 197.541 1127.81 197.375 1126C197.25 1126.5 196.125 1126.88 194.125 1126.88C192.125 1126.88 191 1124.25 191 1123C191 1121.75 190.25 1122.62 189.5 1120.25C188.75 1117.88 188.5 1111 192.625 1104.12C195.684 1099.03 200.392 1095.78 203.336 1093.58C204.361 1092.82 205.173 1092.17 205.625 1091.62C207.375 1089.5 206.875 1087.25 208 1084.5C209.125 1081.75 210.625 1080.38 211.25 1079C211.875 1077.62 211.25 1074.12 211.25 1069.38C211.25 1064.62 209.5 1059.12 209.5 1055.5C209.5 1051.88 210 1050.88 211.25 1034.75C212.5 1018.62 206.5 985.875 203.625 967.5C200.75 949.125 194.125 909.25 192.5 888C190.875 866.75 200.875 820.5 200.625 816.5C200.375 812.5 199.5 797.25 199.75 782.375C200 767.5 203.375 765.375 203.125 755.75C202.899 747.039 197.656 734.029 194.068 722C193.691 720.737 193.333 719.485 193 718.25C189.5 705.25 188.125 690.875 187.875 680.5C187.625 670.125 185.375 637.625 185.625 610.5C185.825 588.8 191.616 547.875 194.487 530.125C194.664 527.616 194.918 525.399 195.232 523.25C196.248 516.299 197.893 510.051 199.612 496.875C201.862 479.625 206.862 471.125 206.862 466.625C206.862 463.574 206.632 460.294 206.406 454.875C206.299 452.301 206.193 449.244 206.112 445.5C205.862 433.875 210.487 423.25 210.487 410.875C210.487 401.079 209.077 391.754 208.242 385.75C208.022 384.169 207.841 382.818 207.737 381.75C207.252 376.774 205.352 372.74 203.411 368.62L203.237 368.25C201.237 364 200.737 363.5 198.737 355.5C196.737 347.5 188.882 329.125 185.757 319.5C180.695 337.449 172.048 353.561 160.737 372.75C159.987 377.167 157.837 389.35 155.237 402.75C151.987 419.5 139.987 447.625 120.987 472.625C101.987 497.625 95.7371 511.375 93.9871 515C92.2371 518.625 90.1121 524.625 88.2371 529.125C86.3621 533.625 86.8621 536.25 87.7371 542.375C88.6121 548.5 86.2371 556 85.1121 562.625C84.5471 565.952 83.6039 570.036 82.6306 573.625C81.6658 577.183 80.6716 580.256 79.9871 581.625C78.6121 584.375 75.7371 592.125 75.3621 593.875C74.9871 595.625 70.6121 609.125 69.9871 610.75C69.3621 612.375 66.7371 623 62.4871 622.5C58.2371 622 58.1121 618.625 58.4871 614.875C58.6578 613.167 59.2174 610.656 59.8236 608.25C60.5484 605.373 61.3398 602.646 61.6121 601.625C62.1121 599.75 62.8621 594.75 63.3621 593C63.8621 591.25 66.7371 583.875 65.3621 583.5C63.9871 583.125 62.6121 588.375 61.6121 591.25C60.6121 594.125 58.8621 601.625 58.3621 604C57.8621 606.375 55.2371 614.625 54.4871 617.75C53.7371 620.875 51.2371 637 43.9871 636.125C36.7371 635.25 40.7371 622.125 41.8621 617.75C42.9871 613.375 43.1121 609.75 44.3621 603.5C45.6121 597.25 49.4871 584.25 49.8621 583.5C50.2371 582.75 48.9871 582.125 48.3621 582.75C47.7371 583.375 46.6121 587.25 45.2371 591.25C43.8621 595.25 39.7371 613.5 39.2371 615.5C38.7371 617.5 37.6121 624.25 36.9871 627C36.3621 629.75 34.8621 633.25 34.3621 634.125C33.8621 635 32.2371 637.375 28.7371 637.375C25.2371 637.375 24.1121 634 24.1121 628.875C24.1121 623.75 25.9871 617.25 26.7371 613.125C27.4871 609 27.3621 607 28.2371 602.625C29.1121 598.25 32.8621 585 33.4871 582.375C34.1121 579.75 35.4871 577.125 35.7371 576.75C35.9871 576.375 35.1121 575.25 34.6121 576.125C34.1121 577 33.2371 579.375 30.9871 585.875C30.3759 587.641 29.7094 589.701 29.0526 591.797C27.2917 597.415 25.6012 603.282 25.2371 604.375C25.0646 604.892 24.8028 606.154 24.5237 607.625C23.9936 610.419 23.4008 613.97 23.2371 614.625C22.9871 615.625 21.2371 623.875 15.2371 623.625C9.23706 623.375 10.8621 614.75 10.9871 612.25C11.1121 609.75 12.3621 602.75 13.3621 597.5C14.3621 592.25 16.3621 583.875 17.4871 579.375C18.6121 574.875 21.4871 563 23.2371 558.125C24.6371 554.225 27.4037 547.917 28.6121 545.25C26.8621 545.25 23.1121 546.875 21.4871 548C19.8621 549.125 19.2371 551 16.2371 553.25C13.2371 555.5 7.86204 556.75 3.98704 555.25C0.112042 553.75 0.612042 549.25 2.11204 547.75C3.61204 546.25 5.73704 544.875 6.86204 543.75C7.98704 542.625 7.61204 541.875 8.73704 540.375C9.86204 538.875 12.112 536.75 13.862 535.375C15.612 534 19.362 532.25 21.237 531.125C23.112 530 24.487 528 26.237 526.75C27.987 525.5 32.362 522.875 36.862 521C38.1537 520.458 40.9871 519.3 41.9871 519C43.2371 518.625 49.7371 516.5 50.8621 515C51.9871 513.5 61.9871 486.75 66.1121 473.375C70.2371 460 73.1121 435.375 80.2371 409.75C87.3621 384.125 93.8621 373.25 99.3621 363C104.862 352.75 107.112 350.75 109.237 340.375C111.362 330 118.237 312.75 120.737 304.5C122.737 297.9 130.57 284.25 134.237 278.25C134.445 275.167 134.862 266.8 134.862 258C134.862 247 135.862 225.75 146.612 210C156.629 195.325 163.064 192.587 175.625 187.529C176.545 187.159 177.498 186.776 178.487 186.375C192.987 180.5 198.112 182.875 212.237 178C226.362 173.125 238.237 167.75 245.112 163.75C251.987 159.75 258.362 155.625 258.612 152.625C258.678 151.828 258.71 149.217 258.719 145.75C258.738 138.778 258.668 128.345 258.612 122.25C256.125 118.625 255.612 110.75 255.112 107.625C254.612 104.5 254.737 101.875 254.362 102.75C253.987 103.625 253.487 105.125 250.487 105.5C247.487 105.875 245.237 98.5 243.112 94.875C240.987 91.25 239.487 83 239.237 77.125C239.179 75.7666 239.275 74.6087 239.491 73.625C240.208 70.3542 242.248 69.0094 244.362 68.625C246.562 68.225 248.279 70.875 248.862 72.25C248.07 63.7083 247.112 44.675 249.612 36.875C252.737 27.125 266.987 0.875 298.237 0.875C329.487 0.875 343.763 27.125 346.888 36.875C349.388 44.675 348.43 63.7083 347.638 72.25C348.221 70.875 349.938 68.225 352.138 68.625C354.252 69.0094 356.292 70.3542 357.009 73.625C357.225 74.6087 357.321 75.7666 357.263 77.125C357.013 83 355.513 91.25 353.388 94.875C351.263 98.5 349.013 105.875 346.013 105.5C343.013 105.125 342.513 103.625 342.138 102.75C341.763 101.875 341.888 104.5 341.388 107.625C340.888 110.75 340.25 119.25 337.888 122.25C337.832 128.345 337.762 138.778 337.781 145.75C337.79 149.217 337.822 151.828 337.888 152.625C338.138 155.625 344.513 159.75 351.388 163.75C358.263 167.75 370.138 173.125 384.263 178C398.388 182.875 403.513 180.5 418.013 186.375C419.002 186.776 419.955 187.159 420.875 187.529C433.436 192.587 439.871 195.325 449.888 210C460.638 225.75 461.638 247 461.638 258C461.638 266.8 462.055 275.167 462.263 278.25C465.93 284.25 473.763 297.9 475.763 304.5C478.263 312.75 485.138 330 487.263 340.375C489.388 350.75 491.638 352.75 497.138 363C502.638 373.25 509.138 384.125 516.263 409.75C523.388 435.375 526.263 460 530.388 473.375C534.513 486.75 544.513 513.5 545.638 515C546.763 516.5 553.263 518.625 554.513 519C555.513 519.3 558.346 520.458 559.638 521C564.138 522.875 568.513 525.5 570.263 526.75C572.013 528 573.388 530 575.263 531.125C577.138 532.25 580.888 534 582.638 535.375C584.388 536.75 586.638 538.875 587.763 540.375C588.888 541.875 588.513 542.625 589.638 543.75C590.763 544.875 592.888 546.25 594.388 547.75C595.888 549.25 596.388 553.75 592.513 555.25C588.638 556.75 583.263 555.5 580.263 553.25C577.263 551 576.638 549.125 575.013 548C573.388 546.875 569.638 545.25 567.888 545.25C569.096 547.917 571.863 554.225 573.263 558.125C575.013 563 577.888 574.875 579.013 579.375C580.138 583.875 582.138 592.25 583.138 597.5C584.138 602.75 585.388 609.75 585.513 612.25C585.638 614.75 587.263 623.375 581.263 623.625C575.263 623.875 573.513 615.625 573.263 614.625C573.099 613.97 572.506 610.419 571.976 607.625C571.697 606.154 571.435 604.892 571.263 604.375C570.899 603.282 569.208 597.415 567.447 591.797C566.791 589.701 566.124 587.641 565.513 585.875C563.263 579.375 562.388 577 561.888 576.125C561.388 575.25 560.513 576.375 560.763 576.75C561.013 577.125 562.388 579.75 563.013 582.375C563.638 585 567.388 598.25 568.263 602.625C569.138 607 569.013 609 569.763 613.125C570.513 617.25 572.388 623.75 572.388 628.875C572.388 634 571.263 637.375 567.763 637.375C564.263 637.375 562.638 635 562.138 634.125C561.638 633.25 560.138 629.75 559.513 627C558.888 624.25 557.763 617.5 557.263 615.5C556.763 613.5 552.638 595.25 551.263 591.25C549.888 587.25 548.763 583.375 548.138 582.75C547.513 582.125 546.263 582.75 546.638 583.5C547.013 584.25 550.888 597.25 552.138 603.5C553.388 609.75 553.513 613.375 554.638 617.75C555.763 622.125 559.763 635.25 552.513 636.125C545.263 637 542.763 620.875 542.013 617.75C541.263 614.625 538.638 606.375 538.138 604C537.638 601.625 535.888 594.125 534.888 591.25C533.888 588.375 532.513 583.125 531.138 583.5C529.763 583.875 532.638 591.25 533.138 593C533.638 594.75 534.388 599.75 534.888 601.625C535.16 602.646 535.952 605.373 536.676 608.25C537.283 610.656 537.842 613.167 538.013 614.875C538.388 618.625 538.263 622 534.013 622.5C529.763 623 527.138 612.375 526.513 610.75C525.888 609.125 521.513 595.625 521.138 593.875C520.763 592.125 517.888 584.375 516.513 581.625C515.828 580.256 514.834 577.183 513.869 573.625C512.896 570.036 511.953 565.952 511.388 562.625C510.263 556 507.888 548.5 508.763 542.375C509.638 536.25 510.138 533.625 508.263 529.125C506.388 524.625 504.263 518.625 502.513 515C500.763 511.375 494.513 497.625 475.513 472.625C456.513 447.625 444.513 419.5 441.263 402.75C438.663 389.35 436.513 377.167 435.763 372.75C424.452 353.561 415.805 337.449 410.743 319.5C407.618 329.125 399.763 347.5 397.763 355.5C395.763 363.5 395.263 364 393.263 368.25L393.089 368.62C391.148 372.74 389.248 376.774 388.763 381.75C388.659 382.818 388.478 384.169 388.258 385.75C387.423 391.754 386.013 401.079 386.013 410.875C386.013 423.25 390.638 433.875 390.388 445.5C390.307 449.244 390.201 452.301 390.094 454.875C389.868 460.294 389.638 463.574 389.638 466.625C389.638 471.125 394.638 479.625 396.888 496.875C398.607 510.051 400.252 516.299 401.268 523.25C401.582 525.399 401.836 527.616 402.013 530.125C404.884 547.875 410.675 588.8 410.875 610.5C411.125 637.625 408.875 670.125 408.625 680.5C408.375 690.875 407 705.25 403.5 718.25C403.167 719.485 402.809 720.737 402.432 722C398.844 734.029 393.601 747.039 393.375 755.75C393.125 765.375 396.5 767.5 396.75 782.375C397 797.25 396.125 812.5 395.875 816.5C395.625 820.5 405.625 866.75 404 888C402.375 909.25 395.75 949.125 392.875 967.5C390 985.875 384 1018.62 385.25 1034.75C386.5 1050.88 387 1051.88 387 1055.5C387 1059.12 385.25 1064.62 385.25 1069.38C385.25 1074.12 384.625 1077.62 385.25 1079C385.875 1080.38 387.375 1081.75 388.5 1084.5C389.625 1087.25 389.125 1089.5 390.875 1091.62C391.327 1092.17 392.139 1092.82 393.164 1093.58C396.108 1095.78 400.816 1099.03 403.875 1104.12C408 1111 407.75 1117.88 407 1120.25C406.25 1122.62 405.5 1121.75 405.5 1123C405.5 1124.25 404.375 1126.88 402.375 1126.88C400.375 1126.88 399.25 1126.5 399.125 1126C398.945 1127.77 398.362 1129.43 397 1129.62C394.375 1130 392.125 1129.5 391.625 1127.88C391.302 1129.71 390.19 1131.38 387.5 1131.38C384.824 1131.38 383.677 1129.62 383.273 1127.88C383.474 1130.08 382.55 1134.5 377.25 1134.5C370.625 1134.5 371.625 1128.38 371.125 1128.12C370.625 1127.88 369.5 1127.88 369.25 1128.12C369 1128.38 369.75 1131.75 368.125 1133.38C366.5 1135 364.125 1136.38 359 1136.12C346.125 1135.5 343.625 1121 343.25 1119.75C342.875 1118.5 340.25 1113.75 343.5 1108C344.675 1105.92 345.556 1104.51 346.125 1103.37M250.375 1103.37C250.091 1102.79 249.884 1102.29 249.758 1101.79M250.375 1103.37C250.148 1102.85 249.943 1102.33 249.758 1101.79M249.758 1101.79C249.437 1100.54 249.631 1099.39 250.375 1097.5C252 1093.38 254.875 1089.25 254.875 1084.12C254.875 1079 253.5 1078.25 253.625 1075.25C253.75 1072.25 254.75 1060.62 254.375 1053.88C254 1047.12 247.75 1034 248 1019.5C248.25 1005 252.375 971.375 259.75 948.625C267.125 925.875 266.75 906.625 265.375 889.625C264 872.625 256 851 259 835.125C262 819.25 267.75 809.25 269 799.5C270.25 789.75 269.625 767.875 270.75 764.125C271.064 763.078 271.563 760.588 272.131 757.375C273.596 749.08 275.515 735.961 275.875 730.375C276.213 725.137 279.748 709.623 282.776 696.334L283.08 695C284.414 689.146 285.621 683.818 286.375 680.125C288.875 667.875 294.75 642.25 294.625 616.5V603.409C295.76 603.551 296.967 603.625 298.25 603.625C299.533 603.625 300.74 603.551 301.875 603.409V616.5C301.75 642.25 307.625 667.875 310.125 680.125C310.879 683.818 312.086 689.146 313.42 695L313.724 696.334C316.752 709.623 320.287 725.137 320.625 730.375C320.985 735.961 322.904 749.08 324.369 757.375C324.937 760.588 325.436 763.078 325.75 764.125C326.875 767.875 326.25 789.75 327.5 799.5C328.75 809.25 334.5 819.25 337.5 835.125C340.5 851 332.5 872.625 331.125 889.625C329.75 906.625 329.375 925.875 336.75 948.625C344.125 971.375 348.25 1005 348.5 1019.5C348.75 1034 342.5 1047.12 342.125 1053.88C341.75 1060.62 342.75 1072.25 342.875 1075.25C343 1078.25 341.625 1079 341.625 1084.12C341.625 1089.25 344.5 1093.38 346.125 1097.5C346.869 1099.39 347.063 1100.54 346.742 1101.79M346.125 1103.37C346.409 1102.79 346.616 1102.29 346.742 1101.79M346.125 1103.37C346.352 1102.85 346.557 1102.33 346.742 1101.79" stroke="black" stroke-linecap="round" stroke-linejoin="round"/>
</svg>
